<svg width="29" height="24" viewBox="0 0 29 24" fill="none" xmlns="http://www.w3.org/2000/svg">
<path id="XMLID_28_" d="M15.9031 2.80908C15.3021 2.22184 15.7278 1.12078 16.5542 1.0229C17.0801 0.900563 17.5058 1.29205 17.8564 1.63461C21.0369 4.74206 24.1922 7.82504 27.3727 10.9325C27.6732 11.2261 28.0238 11.5442 27.9987 12.0091C28.0238 12.5229 27.573 12.8655 27.2475 13.208C24.042 16.34 20.8365 19.4963 17.606 22.6283C17.03 23.3378 15.6777 22.9708 15.6276 22.041C15.5525 21.2091 16.3789 20.7442 16.8798 20.2059C19.2338 17.8325 21.7381 15.6059 23.9919 13.1591C15.0767 13.0857 11.145 13.1591 2.22981 13.1102C1.60374 13.1836 0.977673 12.6453 1.00272 12.0091C0.952631 11.3485 1.60374 10.8346 2.25485 10.908C11.17 10.8591 15.0767 10.9325 23.9919 10.8591C21.4125 8.06973 18.5326 5.54951 15.9031 2.80908Z" fill="#141414" stroke="#483B32" stroke-width="0.09375" stroke-miterlimit="10"/>
</svg>
