<svg width="57" height="57" viewBox="0 0 57 57" fill="none" xmlns="http://www.w3.org/2000/svg">
<g id="civil-engineering-icon 1" clip-path="url(#clip0_8_123)">
<path id="Vector" d="M23.6572 3.26542C23.5293 3.26918 23.4018 3.24861 23.2815 3.20477C19.9231 4.71619 17.2048 8.03757 16.4626 13.5654C16.4168 13.8632 16.2563 14.1308 16.0159 14.3106C15.7755 14.4904 15.4745 14.5679 15.1777 14.5264C15.0312 14.5119 14.8891 14.4682 14.7594 14.3981C14.6298 14.3279 14.5153 14.2326 14.4225 14.1176C14.3298 14.0027 14.2606 13.8703 14.2191 13.7283C14.1775 13.5863 14.1644 13.4374 14.1804 13.2902C15.0432 6.84803 18.3274 2.95287 22.3909 1.16156C24.4364 0.273723 26.6614 -0.11625 28.885 0.0233339C31.1071 0.150612 33.2774 0.748312 35.2539 1.77732C39.4287 3.94649 42.583 7.99559 42.8103 13.3928C42.8067 13.6895 42.6899 13.9734 42.484 14.186C42.2781 14.3985 41.9989 14.5233 41.7041 14.5347C41.4093 14.5461 41.1214 14.4431 40.9 14.2471C40.6785 14.0511 40.5404 13.777 40.5142 13.4815C40.324 8.96122 37.6567 5.5512 34.1638 3.73657L33.7 3.51265C33.5689 3.55883 33.4306 3.58095 33.2917 3.57796C32.2434 3.54997 31.9697 5.44391 31.9001 7.95361C31.8677 9.0825 31.9001 10.3327 31.9001 11.6062C31.9001 12.6185 31.9373 13.6541 31.9373 14.3398C31.9187 14.6321 31.7902 14.9064 31.5778 15.1068C31.3654 15.3072 31.0851 15.4188 30.7938 15.4188C30.5026 15.4188 30.2222 15.3072 30.0098 15.1068C29.7974 14.9064 29.6689 14.6321 29.6504 14.3398C29.6504 13.2202 29.6504 12.4225 29.6226 11.6389C29.5947 10.3374 29.5715 9.06851 29.5994 7.90696C29.6597 5.62584 29.9287 3.70858 30.759 2.53303C30.1009 2.38643 29.4325 2.29129 28.7598 2.24848C27.9062 2.19925 27.0499 2.23676 26.2039 2.36043C26.9692 3.54997 27.229 5.45324 27.2847 7.69237C27.3171 8.90057 27.2847 10.2207 27.2847 11.5735C27.2847 12.3806 27.2568 13.2016 27.2568 14.3398C27.2667 14.4932 27.2451 14.647 27.1935 14.7917C27.1419 14.9365 27.0613 15.069 26.9568 15.1811C26.8522 15.2933 26.7259 15.3827 26.5856 15.4438C26.4454 15.5049 26.2941 15.5364 26.1412 15.5364C25.9884 15.5364 25.8371 15.5049 25.6968 15.4438C25.5566 15.3827 25.4303 15.2933 25.3257 15.1811C25.2211 15.069 25.1406 14.9365 25.089 14.7917C25.0373 14.647 25.0158 14.4932 25.0256 14.3398C25.0256 13.6261 25.0256 12.5765 25.0674 11.5409C25.0674 10.2161 25.1138 8.91923 25.0674 7.74835C25.0071 5.15935 24.7288 3.24209 23.6758 3.27008L23.6572 3.26542ZM41.8083 18.3189C41.8965 18.5335 41.98 18.7528 42.0588 18.972C42.1841 19.3032 42.2954 19.6438 42.3928 19.989V20.0263C42.5134 20.6794 42.5923 21.0152 42.6433 21.2205C42.6762 21.3429 42.6995 21.4676 42.7129 21.5937C42.7237 21.749 42.7237 21.9049 42.7129 22.0602C42.7129 22.2841 42.7129 22.6339 42.7129 23.217V23.2497C42.6812 23.6658 42.6192 24.0789 42.5273 24.4859C42.4292 24.9288 42.3084 25.3663 42.1655 25.7967C41.9256 26.5199 41.5596 27.1944 41.0847 27.7886C40.7788 28.1821 40.364 28.4759 39.8926 28.633L39.8091 28.9315L39.6699 29.4866C38.9768 32.1642 37.4958 34.569 35.4209 36.386C33.512 38.0389 31.0599 38.9185 28.5417 38.8537C25.988 38.8343 23.5289 37.879 21.6255 36.1667C19.5798 34.3567 18.1001 31.7677 17.1909 28.8569V28.8149C17.1584 28.6983 17.1121 28.5583 17.0657 28.4184V28.3484C16.6768 28.2666 16.3175 28.0795 16.0266 27.8073C15.5921 27.3955 15.2436 26.9007 15.0015 26.3518C14.7961 25.9002 14.6285 25.4321 14.5005 24.9524C14.3696 24.4661 14.2781 23.97 14.2268 23.469C14.1653 22.5854 14.2596 21.6979 14.5051 20.8473C14.6952 20.1025 14.9354 19.3715 15.2241 18.6595C15.0386 18.5568 14.8577 18.4496 14.686 18.3423C13.6152 17.7222 12.7442 16.8057 12.1765 15.7019L14.2686 14.769C14.6568 15.4833 15.2371 16.0733 15.9431 16.4717C18.499 18.0764 22.9985 18.8507 27.6465 18.8647C32.2944 18.8787 37.1001 18.1137 40.1709 16.6536C41.3816 16.0751 42.2861 15.4081 42.75 14.6617L44.7261 15.7999C43.9891 16.8792 42.9872 17.7486 41.8176 18.3236L41.8083 18.3189ZM17.5342 19.6438C17.1398 20.1047 16.8487 20.6456 16.6807 21.2298C16.4359 21.8565 16.3146 22.5251 16.3235 23.1984C16.3724 23.6153 16.4499 24.0284 16.5554 24.4346C16.652 24.8014 16.7809 25.1589 16.9404 25.5028V25.5355C17.0839 25.8602 17.2851 26.1558 17.5342 26.4078C17.5724 26.4521 17.6193 26.4878 17.672 26.5127C17.7248 26.5376 17.7821 26.5511 17.8403 26.5524C17.9453 26.5194 18.056 26.5086 18.1654 26.5206C18.2747 26.5326 18.3804 26.5673 18.4758 26.6224C18.6574 26.7268 18.7969 26.8918 18.8701 27.0889C18.9675 27.3874 19.0325 27.5974 19.0928 27.7886C19.1531 27.9799 19.1855 28.0918 19.2273 28.2551C19.9829 30.8877 21.6221 33.1757 23.866 34.7299C25.3061 35.6976 26.991 36.2317 28.7227 36.2693C30.4179 36.2914 32.0791 35.7899 33.4819 34.8326C35.2493 33.6337 36.729 31.6745 37.5547 28.9175C37.6382 28.5816 37.731 28.2551 37.8376 27.8959L37.9443 27.5087C38.0054 27.33 38.1165 27.1729 38.2644 27.0562H38.2969C38.3809 26.9969 38.476 26.9551 38.5764 26.9335C38.6768 26.9119 38.7805 26.9108 38.8813 26.9303C38.9973 26.9303 39.1504 26.8277 39.3174 26.6224C39.6452 26.1794 39.9005 25.6864 40.0735 25.1623C40.1978 24.8032 40.3016 24.4371 40.3843 24.0661C40.4621 23.7376 40.5163 23.404 40.5466 23.0678C40.5834 22.5163 40.4763 21.9647 40.2358 21.4677C40.1258 21.1961 40.0298 20.919 39.9482 20.6374C39.8833 20.4368 39.8184 20.2502 39.7534 20.0823C39.6885 19.9143 39.6143 19.7137 39.54 19.5411C39.518 19.4831 39.507 19.4214 39.5076 19.3592C33.5933 21.4444 23.7778 21.8269 17.5249 19.6857L17.5342 19.6438ZM57 57C56.3552 48.5519 58.002 45.2585 50.9697 42.6042C47.4583 41.2794 42.968 39.6001 39.7395 37.5802L33.7092 57H57ZM0 57C0.644775 48.5519 -1.00195 45.2492 6.03027 42.6042C9.54175 41.2794 14.032 39.6001 17.2605 37.5802L23.2908 57H0ZM30.1885 44.9647H31.0281C31.3972 44.9647 31.7511 44.8172 32.0121 44.5548C32.2731 44.2923 32.4197 43.9364 32.4197 43.5652V41.3167C32.4197 40.9456 32.2731 40.5896 32.0121 40.3272C31.7511 40.0647 31.3972 39.9173 31.0281 39.9173H26.0276C25.6585 39.9173 25.3046 40.0647 25.0436 40.3272C24.7826 40.5896 24.636 40.9456 24.636 41.3167V43.5745C24.636 43.9457 24.7826 44.3016 25.0436 44.5641C25.3046 44.8265 25.6585 44.974 26.0276 44.974H26.8765L25.2483 57.0093H31.7656L30.1885 44.974V44.9647Z" fill="#FFECD1"/>
</g>
<defs>
<clipPath id="clip0_8_123">
<rect width="57" height="57" fill="white"/>
</clipPath>
</defs>
</svg>
