<svg width="61" height="61" viewBox="0 0 61 61" fill="none" xmlns="http://www.w3.org/2000/svg">
<g id="4838756 1">
<path id="Vector" d="M6.05237 3.07384C7.58928 1.65606 10.1746 1.51309 11.783 2.8713C13.0221 3.89591 14.0586 5.13497 15.2262 6.21915C15.2619 4.96817 15.1547 3.70528 15.3215 2.4543C15.5717 1.76329 16.4772 1.95391 17.0371 1.90626C30.5358 1.90626 44.0463 1.91817 57.5449 1.89434C58.0453 1.87052 58.8317 1.8586 59.0104 2.4543C59.1772 3.86016 59.0819 5.26602 59.0938 6.67188C59.0938 22.5533 59.0938 38.4467 59.0938 54.3281C59.1772 56.9373 56.711 59.2963 54.0899 59.0938C41.9852 59.1057 29.8686 59.0699 17.752 59.1057C17.0729 59.0818 16.3819 59.1414 15.7028 59.0223C15.5717 58.9865 15.4287 58.9627 15.2858 58.9627C13.0221 58.641 11.2707 56.3654 11.4375 54.0899C11.4018 51.3973 11.4614 48.6928 11.4375 46.0002C11.2707 45.9049 11.1039 45.8096 10.949 45.7262C10.3414 46.31 9.78147 46.9533 9.1262 47.4895C8.75686 47.7635 8.20882 47.7277 7.91096 47.3703C6.77913 46.3576 5.76643 45.2258 4.67034 44.1774C4.25335 43.7484 3.6219 43.2719 3.84827 42.569C4.34866 41.8184 5.0635 41.2346 5.69495 40.5912C5.62346 40.4125 5.55198 40.2338 5.48049 40.0432C4.47971 40.0313 3.4551 40.0789 2.46624 39.9479C2.00159 39.8287 1.87053 39.2449 1.91819 38.8399C1.87053 37.017 1.87053 35.1822 1.90628 33.3594C1.90628 32.9662 2.13264 32.5254 2.54964 32.4658C3.52659 32.3705 4.50354 32.3943 5.48049 32.3943C5.55198 32.2037 5.63538 32.025 5.70686 31.8344C5.0635 31.0123 3.64573 30.4404 3.84827 29.2252C4.78948 27.9623 6.05237 26.9854 7.11272 25.8178C7.6012 25.365 8.10159 24.5787 8.89983 24.817C9.65042 25.3174 10.2342 26.0322 10.8776 26.6637C11.0563 26.5922 11.235 26.5207 11.4256 26.4492C11.4614 25.4246 11.3422 24.3643 11.5567 23.3397C11.9856 22.5652 13.1293 23.018 13.8323 22.8154C10.4963 19.5033 7.18421 16.1555 3.83635 12.8434C3.35979 12.3668 2.90706 11.8545 2.52581 11.2945C1.53694 9.70997 1.76331 7.49395 3.0262 6.12384C3.99124 5.06348 5.02776 4.07462 6.05237 3.07384ZM7.55354 4.33673C6.43362 5.36134 5.36135 6.4336 4.33674 7.55352C3.4551 8.57813 3.77678 10.1746 4.72991 11.0324C6.85061 8.94747 8.9594 6.85059 11.0324 4.71798C10.1627 3.80059 8.56624 3.43126 7.55354 4.33673ZM17.1563 3.81251C17.1563 5.26602 17.1563 6.73145 17.1801 8.18497C19.7178 10.6988 22.2198 13.2604 24.7813 15.7623C25.0553 15.5359 25.3412 15.2619 25.7225 15.25C27.1283 15.2143 28.5461 15.1666 29.9401 15.3334C30.7383 15.5836 30.6668 16.918 29.8686 17.1086C28.6533 17.2158 27.4262 17.1563 26.199 17.1682C26.6399 17.7758 27.0569 18.3953 27.45 19.0387C31.2506 19.1221 35.0512 19.0029 38.8399 19.0744C39.5666 18.8957 40.2815 19.6106 39.9955 20.3254C39.8883 20.7781 39.3998 20.9926 38.9709 20.9807C35.3729 20.9926 31.7867 20.9449 28.2006 20.9807C28.3793 21.6121 28.5461 22.2436 28.7129 22.875C32.0846 22.8988 35.4682 22.8274 38.8399 22.8869C39.5547 22.7082 40.2815 23.4231 39.9955 24.1379C39.8764 24.6383 39.3045 24.8408 38.8399 24.7693C35.6588 24.8289 32.4658 24.7455 29.2848 24.7932C29.5707 26.068 29.9401 27.319 30.2737 28.5938C34.801 28.5938 39.3164 28.5938 43.8438 28.5938C43.8438 22.1959 43.8438 15.7981 43.8438 9.41212C43.9272 8.92364 43.7246 8.28028 44.1059 7.88712C44.4991 7.50587 45.1424 7.70841 45.6309 7.62501C47.9899 7.64884 50.3727 7.54161 52.7317 7.68458C53.518 7.82755 53.3512 8.84024 53.375 9.41212C53.3631 14.7734 53.3989 20.1348 53.3631 25.4961C53.4823 26.0442 53.1248 26.6518 52.541 26.6756C50.2774 26.7471 48.0137 26.6518 45.7619 26.6875C45.75 27.7479 45.7977 28.8082 45.6905 29.8567C45.619 30.3213 45.1067 30.5238 44.6897 30.5119C39.9121 30.4881 35.1465 30.5119 30.3809 30.4881C28.975 30.5477 27.6645 30.0115 26.342 29.6541C24.3881 29.0822 22.3985 28.6652 20.4565 28.0457C19.2293 27.6883 18.1809 26.9258 17.1563 26.199C17.1563 33.3594 17.1563 40.5078 17.1563 47.6563C21.9219 47.6563 26.6875 47.6563 31.4412 47.6563C31.4412 46.5959 31.4055 45.5356 31.5127 44.4871C31.5604 44.1893 31.7987 43.951 32.0965 43.9033C33.4666 43.7842 34.8487 43.8438 36.2188 43.8438C36.2188 42.5332 36.2188 41.2108 36.1711 39.9002C35.4324 39.4832 34.8963 38.816 34.4198 38.125C33.7526 38.125 33.0854 38.125 32.4182 38.125C32.4063 39.2092 32.4778 40.3053 32.3229 41.3775C32.1799 41.8899 31.5365 41.9971 31.0957 41.9375C28.3198 41.9613 25.5319 41.9375 22.7559 41.9375C22.2674 41.8541 21.624 42.0566 21.2309 41.6754C20.8496 41.2822 21.0522 40.6389 20.9688 40.1504C20.9926 37.7914 20.8854 35.4086 21.0283 33.0496C21.1117 32.4897 21.8028 32.3229 22.2793 32.4063C25.2578 32.4063 28.2364 32.3824 31.2149 32.4182C31.7033 32.3229 32.3229 32.5969 32.3824 33.133C32.4539 34.1576 32.4182 35.1942 32.4182 36.2307C33.0854 36.2068 33.7645 36.1949 34.4436 36.1711C35.0869 35.0154 36.3141 34.0147 37.7199 34.3721C38.7565 34.4793 39.376 35.4443 39.924 36.2188C40.5912 36.2188 41.2584 36.2188 41.9256 36.2188C41.9375 35.1346 41.866 34.0385 42.0209 32.9662C42.1639 32.4539 42.8073 32.3467 43.2481 32.4063C46.024 32.3824 48.8119 32.4063 51.5879 32.4063C52.0764 32.4897 52.7197 32.2871 53.1129 32.6684C53.4942 33.0615 53.2916 33.7049 53.375 34.1934C53.3869 36.183 53.3869 38.1608 53.375 40.1504C53.2916 40.6389 53.4942 41.2822 53.1129 41.6754C52.684 42.0924 52.0049 41.866 51.4688 41.9494C48.6928 41.9137 45.9049 41.9733 43.1289 41.9256C42.6285 42.0209 42.0209 41.7469 41.9614 41.2108C41.8899 40.1861 41.9256 39.1496 41.9256 38.1131C41.2584 38.1369 40.5793 38.1488 39.9002 38.1846C39.4951 38.8518 38.8756 39.3402 38.2799 39.8406C38.1369 39.924 38.125 40.1027 38.125 40.2576C38.0774 41.449 38.125 42.6524 38.125 43.8438C39.5071 43.8438 40.8772 43.7842 42.2473 43.9033C42.6166 43.9629 42.8668 44.3203 42.8787 44.6777C42.9264 45.6666 42.9026 46.6555 42.9026 47.6563C45.3569 47.6801 47.8231 47.6086 50.2774 47.6682C50.7658 47.5729 51.3735 47.8469 51.4449 48.383C51.5879 50.611 51.3139 52.8508 51.5641 55.0787C51.8143 56.0438 52.6721 56.7586 53.5657 57.116C55.5076 57.6998 57.4973 55.8055 57.1875 53.8516C57.1875 37.1719 57.1875 20.4922 57.1875 3.81251C43.8438 3.81251 30.5 3.81251 17.1563 3.81251ZM6.1596 12.3906C6.31448 12.5574 6.46936 12.7361 6.62424 12.9149C8.76878 10.9014 10.818 8.76876 12.903 6.67188C12.7481 6.50509 12.5932 6.32638 12.4383 6.14766C10.2938 8.16114 8.24456 10.2938 6.1596 12.3906ZM13.2961 9.0547C16.4772 12.2596 19.6701 15.4525 22.875 18.6336C23.2086 18.3 23.5422 17.9664 23.8758 17.6328C20.6947 14.4279 17.5018 11.2231 14.285 8.05391C13.9514 8.38751 13.6297 8.7211 13.2961 9.0547ZM45.75 9.53126C45.75 14.6186 45.75 19.694 45.75 24.7813C47.6563 24.7813 49.5625 24.7932 51.4688 24.7813C51.4688 19.694 51.4688 14.6186 51.4688 9.53126C49.5625 9.53126 47.6563 9.51934 45.75 9.53126ZM10.4367 11.9141C13.6178 15.119 16.8108 18.3119 20.0276 21.493C20.5041 21.0045 21.0045 20.5041 21.493 20.0156C18.3119 16.8108 15.119 13.6059 11.9022 10.4367C11.4137 10.9371 10.9252 11.4256 10.4367 11.9141ZM8.05393 14.2969C11.235 17.5018 14.428 20.6947 17.6328 23.8758C17.9664 23.5422 18.3 23.2086 18.6336 22.875C15.4526 19.6701 12.2596 16.4652 9.0428 13.2961C8.70921 13.6297 8.38753 13.9633 8.05393 14.2969ZM19.0268 25.2102C20.2063 25.9965 21.5526 26.4731 22.9227 26.759C23.4588 26.89 23.7567 26.2824 24.1022 26.0084C24.9719 25.0553 26.0323 24.2451 26.7709 23.2086C26.616 21.7313 25.9965 20.3135 25.234 19.0387C23.149 21.076 21.1117 23.1729 19.0268 25.2102ZM13.3557 24.7813C13.2961 25.7106 13.4867 26.7113 13.1889 27.6049C12.6051 28.2602 11.6401 28.3555 10.9014 28.7486C10.7942 28.5699 10.4367 28.6176 10.4129 28.844C9.79339 28.2959 9.18577 27.724 8.60198 27.1283C7.76799 27.9027 6.94592 28.701 6.1596 29.5469C6.74339 30.1545 7.29143 30.7859 7.86331 31.3936C7.63694 31.4055 7.6012 31.7629 7.77991 31.8701C7.42249 32.6326 7.27952 33.5738 6.63616 34.1576C5.76643 34.5389 4.72991 34.2172 3.81253 34.3244C3.81253 35.5873 3.81253 36.8502 3.81253 38.1131C4.74182 38.1727 5.7426 37.982 6.63616 38.2799C7.29143 38.8637 7.38674 39.8287 7.77991 40.5674C7.6012 40.6746 7.64885 41.032 7.87522 41.0559C7.32717 41.6754 6.7553 42.283 6.1596 42.8668C6.93401 43.7008 7.73225 44.5229 8.57815 45.3092C9.18577 44.7254 9.81721 44.1774 10.4248 43.6055C10.4367 43.8318 10.7942 43.8676 10.9014 43.6889C11.6639 44.0463 12.6051 44.1893 13.1889 44.8326C13.5701 45.7024 13.2485 46.7389 13.3676 47.6563C13.9871 47.6563 14.6186 47.6563 15.25 47.6563C15.25 46.3815 15.25 45.0947 15.25 43.8199C15.0356 43.8318 14.8092 43.8438 14.5828 43.8676C14.5948 43.6174 14.1778 43.6055 14.1063 43.808C12.4264 43.4149 10.7703 42.7 9.62659 41.3656C8.56624 40.2695 8.00628 38.816 7.66077 37.3625C7.86331 37.291 7.85139 36.874 7.61311 36.8859C7.63694 36.4451 7.62503 35.9924 7.61311 35.5516C7.86331 35.5754 7.88714 35.1584 7.6846 35.075C8.0301 33.4428 8.72112 31.8344 9.9721 30.7026C11.092 29.5826 12.5932 28.9631 14.1063 28.6414C14.1897 28.844 14.6067 28.8201 14.5948 28.5818C14.8092 28.5938 15.0356 28.6057 15.25 28.6057C15.25 27.3309 15.25 26.0561 15.25 24.7813C14.6186 24.7813 13.9871 24.7813 13.3557 24.7813ZM25.4485 27.45C26.342 27.6764 27.2356 27.9147 28.1291 28.141C27.9266 27.2356 27.7002 26.3301 27.4619 25.4365C26.7471 26.068 26.0799 26.7471 25.4485 27.45ZM14.3446 30.6311C13.9633 30.6192 13.5821 30.7264 13.2365 30.8574C11.4137 31.5961 9.82913 33.2998 9.65042 35.3014C9.43596 35.2775 9.38831 35.6588 9.59085 35.7184C9.17385 38.542 11.4852 41.5443 14.3446 41.8065C14.3207 42.0209 14.6901 42.0567 14.7496 41.866C14.9164 41.9137 15.0713 41.9613 15.2381 42.009C15.2381 41.3656 15.2381 40.7342 15.2381 40.0908C13.4629 39.9836 11.8188 38.685 11.4733 36.9098C11.3065 35.4443 11.8426 33.7287 13.2246 33.002C13.8203 32.585 14.5471 32.4897 15.2381 32.3586C15.2381 31.7152 15.2381 31.06 15.2381 30.4166C15.0713 30.4643 14.9045 30.5238 14.7496 30.5715C14.6901 30.3809 14.3207 30.4166 14.3446 30.6311ZM13.7369 35.0631C13.2485 35.6111 13.2604 36.4451 13.5344 37.1004C13.8561 37.7438 14.5709 38.0535 15.2381 38.1965C15.25 36.874 15.25 35.5516 15.2381 34.241C14.6901 34.3959 14.0705 34.5389 13.7369 35.0631ZM22.875 34.3125C22.875 36.2188 22.8631 38.125 22.875 40.0313C25.4127 40.0313 27.9623 40.0313 30.5 40.0313C30.5 38.125 30.5119 36.2188 30.5 34.3125C27.9623 34.3125 25.4127 34.3125 22.875 34.3125ZM43.8438 34.3125C43.8438 36.2188 43.8319 38.125 43.8438 40.0313C46.3815 40.0313 48.9311 40.0313 51.4688 40.0313C51.4688 38.125 51.4688 36.2188 51.4688 34.3125C48.9311 34.3125 46.3815 34.3125 43.8438 34.3125ZM36.8621 36.2545C36.3617 36.3856 36.0758 36.9932 36.2545 37.4817C36.3856 37.982 36.9932 38.268 37.4817 38.0893C37.9821 37.9582 38.268 37.3506 38.0893 36.8621C37.9582 36.3617 37.3506 36.0758 36.8621 36.2545ZM33.3594 45.75C33.3594 46.3815 33.3594 47.0248 33.3594 47.6563C35.8971 47.6563 38.4467 47.6563 40.9844 47.6563C40.9844 47.0248 40.9844 46.3815 40.9844 45.75C38.4467 45.75 35.8971 45.75 33.3594 45.75ZM13.3438 49.5625C13.3557 51.1947 13.2842 52.8151 13.3676 54.4473C13.3438 56.0438 14.9998 57.3901 16.5606 57.1994C27.867 57.1756 39.1735 57.1875 50.4799 57.1994C50.1344 56.5799 49.8842 55.9127 49.6102 55.2574C49.7889 55.1979 49.7531 54.8285 49.5387 54.8524C49.6221 53.0891 49.5387 51.3258 49.5625 49.5625C37.4936 49.5625 25.4127 49.5625 13.3438 49.5625Z" fill="#FFECD1" stroke="#FFECD1" stroke-width="0.125"/>
<path id="Vector_2" d="M27.3308 7.68455C28.7724 7.56541 30.2379 7.5535 31.6795 7.64881C32.5492 7.75603 32.6803 9.18572 31.8463 9.44783C30.3808 9.60271 28.8916 9.5908 27.4142 9.5074C26.4969 9.40018 26.4254 7.85135 27.3308 7.68455Z" fill="#FFECD1" stroke="#FFECD1" stroke-width="0.125"/>
<path id="Vector_3" d="M34.9558 7.68455C36.3974 7.56541 37.8629 7.5535 39.3045 7.64881C40.1742 7.75603 40.3053 9.18572 39.4713 9.44783C38.0058 9.60271 36.5166 9.5908 35.0392 9.5074C34.1219 9.40018 34.0504 7.85135 34.9558 7.68455Z" fill="#FFECD1" stroke="#FFECD1" stroke-width="0.125"/>
<path id="Vector_4" d="M25.4246 11.4971C30.0115 11.366 34.6104 11.4494 39.1973 11.4494C39.9479 11.4613 40.3053 12.486 39.8287 13.0221C39.4475 13.4867 38.7565 13.2604 38.2442 13.3438C34.0385 13.3319 29.8209 13.3795 25.6153 13.3319C24.6264 13.3319 24.4596 11.6877 25.4246 11.4971Z" fill="#FFECD1" stroke="#FFECD1" stroke-width="0.125"/>
<path id="Vector_5" d="M33.0496 15.3096C35.0512 15.1785 37.0766 15.2381 39.0781 15.25C39.6857 15.2262 40.1861 15.8219 40.0193 16.4295C39.9359 16.9537 39.3402 17.2397 38.8398 17.1444C36.9455 17.1682 35.0273 17.2278 33.133 17.1324C32.2156 17.0252 32.1441 15.4883 33.0496 15.3096Z" fill="#FFECD1" stroke="#FFECD1" stroke-width="0.125"/>
<path id="Vector_6" opacity="0.54" d="M14.1063 28.6414C14.2611 28.5818 14.4279 28.558 14.5947 28.5818C14.6067 28.8201 14.1897 28.8439 14.1063 28.6414Z" fill="#FFECD1" stroke="#FFECD1" stroke-width="0.125"/>
<path id="Vector_7" opacity="0.57" d="M10.4129 28.844C10.4367 28.6176 10.7942 28.5699 10.9014 28.7487C10.7942 28.7844 10.5797 28.8559 10.4725 28.8916L10.4129 28.844Z" fill="#FFECD1" stroke="#FFECD1" stroke-width="0.125"/>
<path id="Vector_8" opacity="0.42" d="M14.3445 30.631C14.3207 30.4166 14.6901 30.3809 14.7496 30.5715C14.6186 30.631 14.4756 30.643 14.3445 30.631Z" fill="#FFECD1" stroke="#FFECD1" stroke-width="0.125"/>
<path id="Vector_9" opacity="0.57" d="M7.86326 31.3936L7.92283 31.4412C7.88709 31.5484 7.8156 31.7629 7.77986 31.8701C7.60115 31.7629 7.63689 31.4055 7.86326 31.3936Z" fill="#FFECD1" stroke="#FFECD1" stroke-width="0.125"/>
<path id="Vector_10" opacity="0.54" d="M7.61309 35.5516C7.60117 35.3967 7.625 35.2299 7.68457 35.075C7.88711 35.1584 7.86328 35.5754 7.61309 35.5516Z" fill="#FFECD1" stroke="#FFECD1" stroke-width="0.125"/>
<path id="Vector_11" opacity="0.42" d="M9.59082 35.7184C9.38828 35.6588 9.43594 35.2775 9.65039 35.3014C9.6623 35.4443 9.63848 35.5873 9.59082 35.7184Z" fill="#FFECD1" stroke="#FFECD1" stroke-width="0.125"/>
<path id="Vector_12" opacity="0.04" d="M36.8621 36.2545C37.3506 36.0758 37.9582 36.3617 38.0892 36.8621C38.268 37.3506 37.982 37.9582 37.4816 38.0892C36.9931 38.268 36.3855 37.982 36.2545 37.4816C36.0758 36.9931 36.3617 36.3855 36.8621 36.2545Z" fill="#FFECD1" stroke="#FFECD1" stroke-width="0.125"/>
<path id="Vector_13" opacity="0.54" d="M7.61307 36.8859C7.85135 36.874 7.86326 37.291 7.66072 37.3625C7.60115 37.2076 7.58924 37.0408 7.61307 36.8859Z" fill="#FFECD1" stroke="#FFECD1" stroke-width="0.125"/>
<path id="Vector_14" opacity="0.57" d="M7.77991 40.5674C7.81565 40.6746 7.88713 40.8891 7.92287 40.9963L7.87522 41.0559C7.64885 41.032 7.6012 40.6746 7.77991 40.5674Z" fill="#FFECD1" stroke="#FFECD1" stroke-width="0.125"/>
<path id="Vector_15" opacity="0.42" d="M14.3445 41.8065C14.4756 41.7945 14.6186 41.8065 14.7496 41.866C14.6901 42.0567 14.3207 42.0209 14.3445 41.8065Z" fill="#FFECD1" stroke="#FFECD1" stroke-width="0.125"/>
<path id="Vector_16" opacity="0.58" d="M10.4725 43.5459C10.5797 43.5816 10.7941 43.6531 10.9014 43.6889C10.7941 43.8676 10.4367 43.8318 10.4248 43.6055L10.4725 43.5459Z" fill="#FFECD1" stroke="#FFECD1" stroke-width="0.125"/>
<path id="Vector_17" opacity="0.53" d="M14.1063 43.808C14.1777 43.6054 14.5947 43.6174 14.5828 43.8676C14.4279 43.8914 14.2611 43.8676 14.1063 43.808Z" fill="#FFECD1" stroke="#FFECD1" stroke-width="0.125"/>
<path id="Vector_18" opacity="0.51" d="M49.5387 54.8524C49.7531 54.8285 49.7889 55.1979 49.6102 55.2574C49.5268 55.1383 49.5148 54.9953 49.5387 54.8524Z" fill="#FFECD1" stroke="#FFECD1" stroke-width="0.125"/>
<path id="Vector_19" opacity="0.49" d="M15.2857 58.9627C15.4287 58.9627 15.5717 58.9865 15.7027 59.0223C15.6432 59.2367 15.2619 59.1891 15.2857 58.9627Z" fill="#FFECD1" stroke="#FFECD1" stroke-width="0.125"/>
</g>
</svg>
